<svg xmlns="http://www.w3.org/2000/svg" viewBox="0 0 746.73 431.42"><defs><style>.cls-1{fill:#e6a44f;}.cls-12,.cls-13,.cls-14,.cls-2,.cls-3,.cls-4,.cls-5,.cls-6{fill:none;}.cls-2,.cls-4,.cls-6{stroke:#ebebe7;}.cls-12,.cls-13,.cls-14,.cls-15,.cls-2,.cls-3,.cls-4,.cls-5,.cls-6{stroke-miterlimit:10;}.cls-2{stroke-width:2px;}.cls-3,.cls-5{stroke:#181813;}.cls-12,.cls-14,.cls-3,.cls-5,.cls-6{stroke-width:10px;}.cls-12,.cls-4,.cls-5{stroke-linecap:round;}.cls-15,.cls-4{stroke-width:8px;}.cls-15,.cls-7{fill:#ebebe7;}.cls-8{fill:#443d2e;}.cls-9{fill:#d6622c;}.cls-10{fill:#94c29a;}.cls-11{fill:#60a3a0;}.cls-12,.cls-13,.cls-14,.cls-15{stroke:#60a3a0;}.cls-13{stroke-width:16px;}</style></defs><title>Asset 4</title><g id="Layer_2" data-name="Layer 2"><g id="Layer_1-2" data-name="Layer 1"><path class="cls-1" d="M746.19,237.93c11.26,56.07-154.81,151.92-318.94,181-63.83,11.29-145.78,24.62-194.43-24.13-33.73-33.8-19-65-50.76-117.62C120.79,175.46,3.75,188.62.09,146.45-4.64,92.11,185.58,22.48,358,4.7,385.47,1.86,608.41-19.45,637,60c9.88,27.46-11,46.07,1.38,82.88C659.7,206.49,738.78,201.06,746.19,237.93Z"/><line class="cls-2" x1="596.38" y1="300.09" x2="596.49" y2="215.14"/><line class="cls-2" x1="586.03" y1="302.87" x2="543.65" y2="229.24"/><line class="cls-2" x1="578.46" y1="310.44" x2="504.95" y2="267.87"/><line class="cls-2" x1="575.69" y1="320.78" x2="490.74" y2="320.67"/><line class="cls-2" x1="578.46" y1="331.12" x2="504.84" y2="373.5"/><line class="cls-2" x1="586.03" y1="338.7" x2="543.46" y2="412.21"/><line class="cls-2" x1="596.38" y1="341.47" x2="596.27" y2="426.42"/><line class="cls-2" x1="606.72" y1="338.7" x2="649.1" y2="412.32"/><line class="cls-2" x1="614.29" y1="331.12" x2="687.81" y2="373.7"/><line class="cls-2" x1="617.06" y1="320.78" x2="702.02" y2="320.89"/><line class="cls-2" x1="614.29" y1="310.44" x2="687.92" y2="268.06"/><line class="cls-2" x1="606.72" y1="302.87" x2="649.29" y2="229.35"/><line class="cls-2" x1="208.88" y1="300.09" x2="208.99" y2="215.14"/><line class="cls-2" x1="198.54" y1="302.87" x2="156.16" y2="229.24"/><line class="cls-2" x1="190.96" y1="310.44" x2="117.45" y2="267.87"/><line class="cls-2" x1="188.19" y1="320.78" x2="103.24" y2="320.67"/><line class="cls-2" x1="190.96" y1="331.12" x2="117.34" y2="373.5"/><line class="cls-2" x1="198.54" y1="338.7" x2="155.96" y2="412.21"/><line class="cls-2" x1="208.88" y1="341.47" x2="208.77" y2="426.42"/><line class="cls-2" x1="219.22" y1="338.7" x2="261.6" y2="412.32"/><line class="cls-2" x1="226.79" y1="331.12" x2="300.31" y2="373.7"/><line class="cls-2" x1="229.57" y1="320.78" x2="314.52" y2="320.89"/><line class="cls-2" x1="226.79" y1="310.44" x2="300.42" y2="268.06"/><line class="cls-2" x1="219.22" y1="302.87" x2="261.79" y2="229.35"/><circle class="cls-3" cx="596.38" cy="320.78" r="105.64"/><circle class="cls-3" cx="208.88" cy="320.78" r="105.64"/><line class="cls-4" x1="361.5" y1="334.37" x2="338.36" y2="280.02"/><line class="cls-5" x1="349.93" y1="280.02" x2="318.87" y2="280.02"/><line class="cls-6" x1="296.54" y1="159.5" x2="310.14" y2="195"/><path class="cls-7" d="M596.38,343.47a22.69,22.69,0,1,1,22.68-22.69A22.72,22.72,0,0,1,596.38,343.47Z"/><path class="cls-8" d="M596.38,300.09a20.69,20.69,0,1,1-20.69,20.69,20.69,20.69,0,0,1,20.69-20.69m0-4a24.69,24.69,0,1,0,24.68,24.69,24.72,24.72,0,0,0-24.68-24.69Z"/><path class="cls-2" d="M531.05,146.79Q580.52,70,587.87,73.88a1.85,1.85,0,0,1,.8.89"/><path class="cls-9" d="M334.88,143.17c-.69,3.29-9.11,2.26-21.93,7.82-9.48,4.11-8.57,6.26-16.41,8.91a49.19,49.19,0,0,1-25.25,1.52c-3-.68-8-2.89-17.91-7.3-5.27-2.35-9.57-4.36-12.48-5.74,5.3-12.61,12.06-16.87,17.31-18.42,11.77-3.46,17.43,6.34,37.43,5.74,12.71-.38,18.43-4.58,28.57-1C329.46,136.48,335.5,140.24,334.88,143.17Z"/><path class="cls-10" d="M238.85,315.36c-3.31-11.24-6.21-21-9-30.76-1.11-3.82-2.43-8.37-6.63-11.39-5-3.58-11.19-3-14.25-2.41L100.71,263a122.61,122.61,0,0,1,108.17-64.8c57.16,0,108.32,48.2,120.14,97.92a102,102,0,0,1,2.49,16.07"/><path class="cls-11" d="M474.78,339.4l16.54-4.16q4.15-6.19,8.41-12.42c20.54-30,41.62-58.36,63-85.14q2.47-19.26,4.94-38.52A122.77,122.77,0,0,0,474.78,339.4Z"/><path class="cls-12" d="M588.67,74.77q2.08,28.59,4.16,57.16a15.77,15.77,0,0,1-4.16,9.72c-6,6.3-15,4.39-15.53,4.27l-42.09.87"/><path class="cls-13" d="M208.88,320.78c6.43-1.42,15.85-3.34,27.33-5a410.82,410.82,0,0,1,68.58-4.12c92.41,1.14,92.36,7.42,107,.55a55.26,55.26,0,0,0,8-4.64c24.57-17.46,80.37-123.2,80.37-123.2,5.65-10.71,14.68-27.23,27-47.14"/><path class="cls-14" d="M317.17,210.55a67.67,67.67,0,0,0-27.34,9.28,66.83,66.83,0,0,0-16.5,14.44c-12.12,14.27-35.48,45.18-64.45,86.51"/><line class="cls-14" x1="310.14" y1="195" x2="355.36" y2="313.01"/><path class="cls-12" d="M465.32,62.24l34.53,1.43q48.26,128.55,96.53,257.11"/><path class="cls-2" d="M361.5,364.88c-10.57-.66-20.05-1.26-28.23-1.79-46-3-81.4-5.66-116.3-19.63-12.44-5-20.69-9.75-20.28-14.4.37-4.12,7.43-6.85,12.19-8.28"/><circle class="cls-15" cx="361.5" cy="334.37" r="30.5"/><line class="cls-12" x1="384.63" y1="388.73" x2="361.5" y2="334.37"/><circle class="cls-7" cx="208.88" cy="320.78" r="18.19"/><path class="cls-8" d="M208.88,305.09a15.69,15.69,0,1,1-15.69,15.69,15.71,15.71,0,0,1,15.69-15.69m0-5a20.69,20.69,0,1,0,20.69,20.69,20.69,20.69,0,0,0-20.69-20.69Z"/><line class="cls-5" x1="397.87" y1="388.73" x2="366.8" y2="388.73"/></g></g></svg>