<svg xmlns="http://www.w3.org/2000/svg" viewBox="0 0 453.64 294.3"><defs><style>.cls-1,.cls-10,.cls-11,.cls-12,.cls-2,.cls-3,.cls-6{fill:none;}.cls-1,.cls-3,.cls-6{stroke:#ebebe7;}.cls-1,.cls-10,.cls-2{stroke-linecap:round;}.cls-1,.cls-10,.cls-11,.cls-12,.cls-13,.cls-2,.cls-3,.cls-6{stroke-miterlimit:10;}.cls-1,.cls-13{stroke-width:8px;}.cls-2{stroke:#181813;}.cls-10,.cls-12,.cls-2,.cls-3{stroke-width:10px;}.cls-13,.cls-4{fill:#ebebe7;}.cls-5{fill:#443d2e;}.cls-6{stroke-width:2px;}.cls-7{fill:#d6622c;}.cls-8{fill:#94c29a;}.cls-9{fill:#60a3a0;}.cls-10,.cls-11,.cls-12,.cls-13{stroke:#60a3a0;}.cls-11{stroke-width:16px;}</style></defs><title>Asset 1</title><g id="Layer_2" data-name="Layer 2"><g id="Layer_1-2" data-name="Layer 1"><line class="cls-1" x1="227.09" y1="241.97" x2="206.94" y2="194.64"/><line class="cls-2" x1="217.02" y1="194.64" x2="189.97" y2="194.64"/><line class="cls-3" x1="170.52" y1="89.69" x2="182.37" y2="120.6"/><path class="cls-4" d="M431.62,250.15a20,20,0,1,1,20-20A20,20,0,0,1,431.62,250.15Z"/><path class="cls-5" d="M431.62,212.12a18,18,0,1,1-18,18,18,18,0,0,1,18-18m0-4a22,22,0,1,0,22,22,22,22,0,0,0-22-22Z"/><path class="cls-6" d="M374.74,78.62q43.08-66.82,49.47-63.49a1.63,1.63,0,0,1,.7.78"/><path class="cls-7" d="M203.91,75.47c-.6,2.87-7.93,2-19.1,6.81-8.25,3.58-7.45,5.46-14.29,7.76a42.74,42.74,0,0,1-22,1.32c-2.65-.59-7-2.52-15.6-6.36-4.59-2-8.33-3.79-10.87-5,4.62-11,10.51-14.69,15.08-16,10.25-3,15.17,5.52,32.59,5,11.07-.34,16-4,24.88-.91C199.19,69.65,204.45,72.92,203.91,75.47Z"/><path class="cls-8" d="M120.29,225.42c-2.89-9.8-5.41-18.28-7.88-26.79-1-3.32-2.11-7.29-5.78-9.92-4.34-3.12-9.74-2.57-12.41-2.09L0,179.77a106.76,106.76,0,0,1,94.19-56.42c49.78,0,94.32,42,104.62,85.26a89.63,89.63,0,0,1,2.17,14"/><path class="cls-9" d="M325.74,246.35l14.4-3.62q3.62-5.4,7.32-10.82c17.89-26.12,36.25-50.82,54.86-74.14q2.15-16.77,4.3-33.54a106.89,106.89,0,0,0-80.88,122.12Z"/><path class="cls-10" d="M424.91,15.91l3.63,49.78a13.79,13.79,0,0,1-3.63,8.46c-5.23,5.48-13.08,3.82-13.52,3.72l-36.65.75"/><path class="cls-11" d="M94.19,230.13c5.6-1.23,13.81-2.9,23.8-4.38a356.1,356.1,0,0,1,59.72-3.59c80.47,1,80.42,6.46,93.16.47a47.36,47.36,0,0,0,7-4c21.38-15.21,70-107.29,70-107.29,4.92-9.32,12.79-23.71,23.5-41"/><path class="cls-12" d="M188.49,134.14a58.9,58.9,0,0,0-23.8,8.09,58.21,58.21,0,0,0-14.37,12.57c-10.56,12.43-30.9,39.34-56.13,75.33"/><line class="cls-12" x1="182.37" y1="120.6" x2="221.74" y2="223.37"/><path class="cls-10" d="M317.5,5l30.07,1.24,84.05,223.89"/><path class="cls-6" d="M227.09,268.53c-9.2-.56-17.46-1.09-24.58-1.55-40-2.6-70.88-4.93-101.27-17.1-10.84-4.34-18-8.49-17.66-12.53.32-3.6,6.46-6,10.61-7.22"/><circle class="cls-13" cx="227.09" cy="241.97" r="26.56"/><line class="cls-10" x1="247.24" y1="289.3" x2="227.09" y2="241.97"/><path class="cls-4" d="M94.19,245.65a15.52,15.52,0,1,1,15.51-15.52A15.53,15.53,0,0,1,94.19,245.65Z"/><path class="cls-5" d="M94.19,217.12a13,13,0,1,1-13,13,13,13,0,0,1,13-13m0-5a18,18,0,1,0,18,18,18,18,0,0,0-18-18Z"/><line class="cls-2" x1="258.76" y1="289.3" x2="231.71" y2="289.3"/></g></g></svg>