<svg xmlns="http://www.w3.org/2000/svg" xmlns:xlink="http://www.w3.org/1999/xlink" viewBox="0 0 531.41 327.12"><defs><style>.cls-1,.cls-12,.cls-13,.cls-14,.cls-15,.cls-16,.cls-18,.cls-2,.cls-3,.cls-4,.cls-5,.cls-6{fill:none;}.cls-1,.cls-3,.cls-6{stroke:#ecebe7;}.cls-1,.cls-12,.cls-16,.cls-18,.cls-2{stroke-linecap:round;}.cls-1,.cls-11,.cls-12,.cls-13,.cls-14,.cls-15,.cls-16,.cls-17,.cls-18,.cls-2,.cls-3,.cls-4,.cls-5,.cls-6,.cls-9{stroke-miterlimit:10;}.cls-1,.cls-17{stroke-width:8px;}.cls-2{stroke:#181813;}.cls-12,.cls-14,.cls-15,.cls-16,.cls-18,.cls-2,.cls-4,.cls-5,.cls-6{stroke-width:10px;}.cls-3{stroke-width:2px;}.cls-4{stroke:url(#linear-gradient);}.cls-5{stroke:url(#linear-gradient-2);}.cls-17,.cls-7{fill:#ecebe7;}.cls-8{fill:url(#linear-gradient-3);}.cls-9{fill:url(#linear-gradient-4);stroke:url(#linear-gradient-5);}.cls-10{fill:url(#linear-gradient-6);}.cls-11{fill:url(#linear-gradient-7);stroke:url(#linear-gradient-8);}.cls-12{stroke:url(#linear-gradient-9);}.cls-13{stroke-width:16px;stroke:url(#linear-gradient-10);}.cls-14{stroke:url(#linear-gradient-11);}.cls-15{stroke:url(#linear-gradient-12);}.cls-16{stroke:url(#linear-gradient-13);}.cls-17{stroke:url(#linear-gradient-14);}.cls-18{stroke:url(#linear-gradient-15);}.cls-19{fill:url(#linear-gradient-16);}</style><linearGradient id="linear-gradient" x1="337.43" y1="230.13" x2="531.41" y2="230.13" gradientUnits="userSpaceOnUse"><stop offset="0" stop-color="#181813"/><stop offset="1" stop-color="#443d2e"/></linearGradient><linearGradient id="linear-gradient-2" x1="0" y1="230.13" x2="193.98" y2="230.13" xlink:href="#linear-gradient"/><linearGradient id="linear-gradient-3" x1="412.41" y1="230.13" x2="456.44" y2="230.13" xlink:href="#linear-gradient"/><linearGradient id="linear-gradient-4" x1="124.87" y1="77.78" x2="206.75" y2="77.78" xlink:href="#linear-gradient"/><linearGradient id="linear-gradient-5" x1="124.23" y1="77.78" x2="207.25" y2="77.78" xlink:href="#linear-gradient"/><linearGradient id="linear-gradient-6" x1="2.8" y1="174.38" x2="203.78" y2="174.38" gradientUnits="userSpaceOnUse"><stop offset="0" stop-color="#545725"/><stop offset="1" stop-color="#676f38"/></linearGradient><linearGradient id="linear-gradient-7" x1="327" y1="185.29" x2="409.42" y2="185.29" xlink:href="#linear-gradient"/><linearGradient id="linear-gradient-8" x1="326.5" y1="185.27" x2="410.01" y2="185.27" xlink:href="#linear-gradient"/><linearGradient id="linear-gradient-9" x1="372.54" y1="47.27" x2="436.35" y2="47.27" xlink:href="#linear-gradient"/><linearGradient id="linear-gradient-10" x1="95.26" y1="152" x2="380.95" y2="152" xlink:href="#linear-gradient"/><linearGradient id="linear-gradient-11" x1="92.9" y1="181.09" x2="191.88" y2="181.09" xlink:href="#linear-gradient"/><linearGradient id="linear-gradient-12" x1="180.5" y1="171.98" x2="229.21" y2="171.98" xlink:href="#linear-gradient"/><linearGradient id="linear-gradient-13" x1="315.3" y1="117.57" x2="439.42" y2="117.57" xlink:href="#linear-gradient"/><linearGradient id="linear-gradient-14" x1="199.33" y1="241.97" x2="260.45" y2="241.97" xlink:href="#linear-gradient"/><linearGradient id="linear-gradient-15" x1="224.89" y1="265.64" x2="255.03" y2="265.64" xlink:href="#linear-gradient"/><linearGradient id="linear-gradient-16" x1="78.98" y1="230.13" x2="115" y2="230.13" xlink:href="#linear-gradient"/></defs><title>Asset 2</title><g id="Layer_2" data-name="Layer 2"><g id="Layer_1-2" data-name="Layer 1"><line class="cls-1" x1="229.89" y1="241.97" x2="209.74" y2="194.64"/><line class="cls-2" x1="219.82" y1="194.64" x2="192.77" y2="194.64"/><line class="cls-3" x1="434.42" y1="212.12" x2="434.52" y2="138.14"/><line class="cls-3" x1="425.42" y1="214.53" x2="388.51" y2="150.42"/><line class="cls-3" x1="418.82" y1="221.13" x2="354.81" y2="184.06"/><line class="cls-3" x1="416.41" y1="230.13" x2="342.43" y2="230.04"/><line class="cls-3" x1="418.82" y1="239.14" x2="354.71" y2="276.05"/><line class="cls-3" x1="425.42" y1="245.74" x2="388.34" y2="309.75"/><line class="cls-3" x1="434.42" y1="248.15" x2="434.33" y2="322.12"/><line class="cls-3" x1="443.43" y1="245.74" x2="480.33" y2="309.85"/><line class="cls-3" x1="450.02" y1="239.14" x2="514.04" y2="276.21"/><line class="cls-3" x1="452.44" y1="230.14" x2="526.41" y2="230.23"/><line class="cls-3" x1="450.02" y1="221.13" x2="514.14" y2="184.22"/><line class="cls-3" x1="443.43" y1="214.53" x2="480.5" y2="150.52"/><line class="cls-3" x1="96.99" y1="212.12" x2="97.09" y2="138.14"/><line class="cls-3" x1="87.98" y1="214.53" x2="51.08" y2="150.42"/><line class="cls-3" x1="81.39" y1="221.13" x2="17.37" y2="184.06"/><line class="cls-3" x1="78.98" y1="230.13" x2="5" y2="230.04"/><line class="cls-3" x1="81.39" y1="239.14" x2="17.28" y2="276.05"/><line class="cls-3" x1="87.98" y1="245.74" x2="50.91" y2="309.75"/><line class="cls-3" x1="96.99" y1="248.15" x2="96.89" y2="322.12"/><line class="cls-3" x1="106" y1="245.74" x2="142.9" y2="309.85"/><line class="cls-3" x1="112.59" y1="239.14" x2="176.61" y2="276.21"/><line class="cls-3" x1="115" y1="230.14" x2="188.98" y2="230.23"/><line class="cls-3" x1="112.59" y1="221.13" x2="176.7" y2="184.22"/><line class="cls-3" x1="106" y1="214.53" x2="143.07" y2="150.52"/><circle class="cls-4" cx="434.42" cy="230.13" r="91.99"/><circle class="cls-5" cx="96.99" cy="230.13" r="91.99"/><line class="cls-6" x1="173.32" y1="89.69" x2="185.17" y2="120.6"/><circle class="cls-7" cx="434.42" cy="230.13" r="18.01"/><path class="cls-8" d="M434.42,212.12a18,18,0,1,1-18,18,18,18,0,0,1,18-18m0-4a22,22,0,1,0,22,22,22,22,0,0,0-22-22Z"/><path class="cls-3" d="M377.54,78.62Q420.62,11.8,427,15.13a1.68,1.68,0,0,1,.7.78"/><path class="cls-9" d="M206.71,75.47c-.6,2.87-7.93,2-19.1,6.81-8.25,3.58-7.45,5.46-14.29,7.76a42.74,42.74,0,0,1-22,1.32c-2.65-.59-7-2.52-15.6-6.36-4.59-2-8.33-3.79-10.87-5,4.62-11,10.51-14.69,15.08-16,10.25-3,15.17,5.52,32.59,5,11.07-.34,16.05-4,24.88-.91C202,69.65,207.25,72.92,206.71,75.47Z"/><path class="cls-10" d="M123.09,225.42c-2.89-9.8-5.41-18.28-7.88-26.79-1-3.32-2.12-7.29-5.78-9.92-4.34-3.12-9.74-2.57-12.41-2.09L2.8,179.77A106.76,106.76,0,0,1,97,123.35c49.78,0,94.32,42,104.62,85.26a89.63,89.63,0,0,1,2.17,14"/><path class="cls-11" d="M328.54,246.35l14.4-3.62q3.62-5.4,7.32-10.82,26.83-39.18,54.86-74.14,2.14-16.77,4.3-33.54a106.89,106.89,0,0,0-80.88,122.12Z"/><path class="cls-12" d="M427.71,15.91l3.63,49.78a13.79,13.79,0,0,1-3.63,8.46c-5.23,5.48-13.08,3.82-13.52,3.72l-36.65.75"/><path class="cls-13" d="M97,230.13c5.6-1.23,13.81-2.9,23.8-4.38a356.1,356.1,0,0,1,59.72-3.59c80.47,1,80.42,6.46,93.15.47a46.8,46.8,0,0,0,7-4c21.39-15.21,70-107.29,70-107.29,4.93-9.32,12.79-23.71,23.51-41"/><path class="cls-14" d="M191.29,134.14a58.9,58.9,0,0,0-23.8,8.09,58.21,58.21,0,0,0-14.37,12.57c-10.56,12.43-30.91,39.34-56.13,75.33"/><line class="cls-15" x1="185.17" y1="120.6" x2="224.54" y2="223.37"/><path class="cls-16" d="M320.3,5l30.07,1.24,84.05,223.89"/><path class="cls-3" d="M229.89,268.53c-9.2-.56-17.46-1.09-24.58-1.55-40-2.6-70.88-4.93-101.27-17.1-10.84-4.34-18-8.49-17.66-12.53.32-3.6,6.46-6,10.61-7.22"/><circle class="cls-17" cx="229.89" cy="241.97" r="26.56"/><line class="cls-18" x1="250.03" y1="289.3" x2="229.89" y2="241.97"/><circle class="cls-7" cx="96.99" cy="230.13" r="18.01"/><path class="cls-19" d="M97,217.12a13,13,0,1,1-13,13,13,13,0,0,1,13-13m0-5a18,18,0,1,0,18,18,18,18,0,0,0-18-18Z"/><line class="cls-2" x1="261.56" y1="289.3" x2="234.51" y2="289.3"/></g></g></svg>