<svg xmlns="http://www.w3.org/2000/svg" viewBox="0 0 531.41 193.98"><defs><style>.cls-1,.cls-2{fill:none;stroke-miterlimit:10;}.cls-1{stroke:#ebebe7;stroke-width:2px;}.cls-2{stroke:#181813;stroke-width:10px;}</style></defs><title>Asset 2</title><g id="Layer_2" data-name="Layer 2"><g id="Layer_1-2" data-name="Layer 1"><line class="cls-1" x1="434.42" y1="78.98" x2="434.52" y2="5"/><line class="cls-1" x1="425.42" y1="81.39" x2="388.51" y2="17.28"/><line class="cls-1" x1="418.82" y1="87.98" x2="354.81" y2="50.91"/><line class="cls-1" x1="416.41" y1="96.99" x2="342.43" y2="96.89"/><line class="cls-1" x1="418.82" y1="106" x2="354.71" y2="142.9"/><line class="cls-1" x1="425.42" y1="112.59" x2="388.34" y2="176.61"/><line class="cls-1" x1="434.42" y1="115" x2="434.33" y2="188.98"/><line class="cls-1" x1="443.43" y1="112.59" x2="480.33" y2="176.7"/><line class="cls-1" x1="450.02" y1="106" x2="514.04" y2="143.07"/><line class="cls-1" x1="452.44" y1="96.99" x2="526.41" y2="97.09"/><line class="cls-1" x1="450.02" y1="87.98" x2="514.14" y2="51.08"/><line class="cls-1" x1="443.43" y1="81.39" x2="480.5" y2="17.37"/><line class="cls-1" x1="96.99" y1="78.98" x2="97.09" y2="5"/><line class="cls-1" x1="87.98" y1="81.39" x2="51.08" y2="17.28"/><line class="cls-1" x1="81.39" y1="87.98" x2="17.37" y2="50.91"/><line class="cls-1" x1="78.98" y1="96.99" x2="5" y2="96.89"/><line class="cls-1" x1="81.39" y1="106" x2="17.28" y2="142.9"/><line class="cls-1" x1="87.98" y1="112.59" x2="50.91" y2="176.61"/><line class="cls-1" x1="96.99" y1="115" x2="96.89" y2="188.98"/><line class="cls-1" x1="106" y1="112.59" x2="142.9" y2="176.7"/><line class="cls-1" x1="112.59" y1="106" x2="176.61" y2="143.07"/><line class="cls-1" x1="115" y1="96.99" x2="188.98" y2="97.09"/><line class="cls-1" x1="112.59" y1="87.98" x2="176.7" y2="51.08"/><line class="cls-1" x1="106" y1="81.39" x2="143.07" y2="17.37"/><circle class="cls-2" cx="434.42" cy="96.99" r="91.99"/><circle class="cls-2" cx="96.99" cy="96.99" r="91.99"/></g></g></svg>